<mxfile host="Electron" modified="2023-11-09T13:42:20.966Z" agent="Mozilla/5.0 (Windows NT 10.0; Win64; x64) AppleWebKit/537.36 (KHTML, like Gecko) draw.io/21.2.8 Chrome/112.0.5615.165 Electron/24.2.0 Safari/537.36" etag="OVw0qbTa9ScFJQh7XD__" version="21.2.8" type="device">
  <diagram name="Page-1" id="-WRxpsyQAC07tz-8ae9h">
    <mxGraphModel dx="4794" dy="2104" grid="1" gridSize="10" guides="1" tooltips="1" connect="1" arrows="1" fold="1" page="1" pageScale="1" pageWidth="827" pageHeight="1169" math="0" shadow="0">
      <root>
        <mxCell id="0" />
        <mxCell id="1" parent="0" />
        <mxCell id="h4Le6FHJ1qaoNSACG7Jo-1" value="Movement" style="rounded=0;whiteSpace=wrap;html=1;fillColor=#ffe6cc;strokeColor=#d79b00;" vertex="1" parent="1">
          <mxGeometry x="-1510" y="-40" width="120" height="60" as="geometry" />
        </mxCell>
        <mxCell id="h4Le6FHJ1qaoNSACG7Jo-2" value="Vision" style="rounded=0;whiteSpace=wrap;html=1;fillColor=#ffe6cc;strokeColor=#d79b00;" vertex="1" parent="1">
          <mxGeometry x="-1310" y="-240" width="120" height="60" as="geometry" />
        </mxCell>
        <mxCell id="h4Le6FHJ1qaoNSACG7Jo-3" value="Lighting" style="rounded=0;whiteSpace=wrap;html=1;fillColor=#ffe6cc;strokeColor=#d79b00;" vertex="1" parent="1">
          <mxGeometry x="-1040" y="-160" width="120" height="60" as="geometry" />
        </mxCell>
        <mxCell id="h4Le6FHJ1qaoNSACG7Jo-4" value="Painting" style="rounded=0;whiteSpace=wrap;html=1;fillColor=#ffe6cc;strokeColor=#d79b00;" vertex="1" parent="1">
          <mxGeometry x="-1050" y="-50" width="120" height="60" as="geometry" />
        </mxCell>
        <mxCell id="h4Le6FHJ1qaoNSACG7Jo-5" value="Affects" style="endArrow=classic;html=1;rounded=0;exitX=0;exitY=0.5;exitDx=0;exitDy=0;entryX=0.75;entryY=0;entryDx=0;entryDy=0;" edge="1" parent="1" source="h4Le6FHJ1qaoNSACG7Jo-2" target="h4Le6FHJ1qaoNSACG7Jo-1">
          <mxGeometry width="50" height="50" relative="1" as="geometry">
            <mxPoint x="-1410" y="-170" as="sourcePoint" />
            <mxPoint x="-1360" y="-220" as="targetPoint" />
          </mxGeometry>
        </mxCell>
        <mxCell id="h4Le6FHJ1qaoNSACG7Jo-6" value="Affects" style="endArrow=classic;html=1;rounded=0;exitX=1;exitY=0.5;exitDx=0;exitDy=0;entryX=0;entryY=0.5;entryDx=0;entryDy=0;" edge="1" parent="1" source="h4Le6FHJ1qaoNSACG7Jo-1" target="h4Le6FHJ1qaoNSACG7Jo-4">
          <mxGeometry x="-0.1772" y="-4" width="50" height="50" relative="1" as="geometry">
            <mxPoint x="-1210" y="-90" as="sourcePoint" />
            <mxPoint x="-1320" y="80" as="targetPoint" />
            <mxPoint as="offset" />
          </mxGeometry>
        </mxCell>
        <mxCell id="h4Le6FHJ1qaoNSACG7Jo-7" value="Affects" style="endArrow=classic;html=1;rounded=0;exitX=0;exitY=0.25;exitDx=0;exitDy=0;entryX=0.75;entryY=1;entryDx=0;entryDy=0;" edge="1" parent="1" source="h4Le6FHJ1qaoNSACG7Jo-4" target="h4Le6FHJ1qaoNSACG7Jo-2">
          <mxGeometry width="50" height="50" relative="1" as="geometry">
            <mxPoint x="-1380" as="sourcePoint" />
            <mxPoint x="-1030" y="20" as="targetPoint" />
          </mxGeometry>
        </mxCell>
        <mxCell id="h4Le6FHJ1qaoNSACG7Jo-8" value="Affects" style="endArrow=classic;html=1;rounded=0;exitX=0;exitY=0.5;exitDx=0;exitDy=0;entryX=1;entryY=0.5;entryDx=0;entryDy=0;" edge="1" parent="1" source="h4Le6FHJ1qaoNSACG7Jo-3" target="h4Le6FHJ1qaoNSACG7Jo-2">
          <mxGeometry width="50" height="50" relative="1" as="geometry">
            <mxPoint x="-1030" y="5" as="sourcePoint" />
            <mxPoint x="-1210" y="-170" as="targetPoint" />
          </mxGeometry>
        </mxCell>
        <mxCell id="h4Le6FHJ1qaoNSACG7Jo-9" value="Affects" style="endArrow=classic;html=1;rounded=0;exitX=1;exitY=0.25;exitDx=0;exitDy=0;entryX=0;entryY=0.75;entryDx=0;entryDy=0;" edge="1" parent="1" source="h4Le6FHJ1qaoNSACG7Jo-1" target="h4Le6FHJ1qaoNSACG7Jo-3">
          <mxGeometry width="50" height="50" relative="1" as="geometry">
            <mxPoint x="-1000" y="-240" as="sourcePoint" />
            <mxPoint x="-1150" y="-320" as="targetPoint" />
          </mxGeometry>
        </mxCell>
        <mxCell id="h4Le6FHJ1qaoNSACG7Jo-10" value="Paint Shooting" style="rounded=0;whiteSpace=wrap;html=1;fillColor=#ffe6cc;strokeColor=#d79b00;" vertex="1" parent="1">
          <mxGeometry x="-1180" y="130" width="120" height="60" as="geometry" />
        </mxCell>
        <mxCell id="h4Le6FHJ1qaoNSACG7Jo-11" value="Affects" style="endArrow=classic;html=1;rounded=0;exitX=0.75;exitY=0;exitDx=0;exitDy=0;entryX=0.25;entryY=1;entryDx=0;entryDy=0;" edge="1" parent="1" source="h4Le6FHJ1qaoNSACG7Jo-10" target="h4Le6FHJ1qaoNSACG7Jo-4">
          <mxGeometry x="0.3575" y="-3" width="50" height="50" relative="1" as="geometry">
            <mxPoint x="-1050" y="150" as="sourcePoint" />
            <mxPoint x="-700" y="170" as="targetPoint" />
            <mxPoint as="offset" />
          </mxGeometry>
        </mxCell>
        <mxCell id="h4Le6FHJ1qaoNSACG7Jo-12" value="Collectable Items" style="rounded=0;whiteSpace=wrap;html=1;fillColor=#ffe6cc;strokeColor=#d79b00;" vertex="1" parent="1">
          <mxGeometry x="-1510" y="130" width="120" height="60" as="geometry" />
        </mxCell>
        <mxCell id="h4Le6FHJ1qaoNSACG7Jo-13" value="Affects" style="endArrow=classic;html=1;rounded=0;exitX=0.25;exitY=1;exitDx=0;exitDy=0;entryX=0.25;entryY=0;entryDx=0;entryDy=0;" edge="1" parent="1" source="h4Le6FHJ1qaoNSACG7Jo-1" target="h4Le6FHJ1qaoNSACG7Jo-12">
          <mxGeometry width="50" height="50" relative="1" as="geometry">
            <mxPoint x="-1380" as="sourcePoint" />
            <mxPoint x="-1030" y="20" as="targetPoint" />
          </mxGeometry>
        </mxCell>
        <mxCell id="h4Le6FHJ1qaoNSACG7Jo-14" value="Affects" style="endArrow=classic;html=1;rounded=0;exitX=0.75;exitY=0;exitDx=0;exitDy=0;entryX=0.25;entryY=1;entryDx=0;entryDy=0;" edge="1" parent="1" source="h4Le6FHJ1qaoNSACG7Jo-12" target="h4Le6FHJ1qaoNSACG7Jo-3">
          <mxGeometry x="-0.219" width="50" height="50" relative="1" as="geometry">
            <mxPoint x="-1340" y="110" as="sourcePoint" />
            <mxPoint x="-1200" y="90" as="targetPoint" />
            <mxPoint as="offset" />
          </mxGeometry>
        </mxCell>
        <mxCell id="h4Le6FHJ1qaoNSACG7Jo-15" value="&lt;b&gt;Core Dynamic&lt;/b&gt;&lt;br&gt;Spatial Reasoning" style="rounded=0;whiteSpace=wrap;html=1;fillColor=#d5e8d4;strokeColor=#82b366;" vertex="1" parent="1">
          <mxGeometry x="-1460" y="-400" width="120" height="60" as="geometry" />
        </mxCell>
        <mxCell id="h4Le6FHJ1qaoNSACG7Jo-16" value="Affects" style="endArrow=classic;html=1;rounded=0;entryX=0.5;entryY=1;entryDx=0;entryDy=0;exitX=0.5;exitY=0;exitDx=0;exitDy=0;" edge="1" parent="1" source="h4Le6FHJ1qaoNSACG7Jo-2" target="h4Le6FHJ1qaoNSACG7Jo-15">
          <mxGeometry width="50" height="50" relative="1" as="geometry">
            <mxPoint x="-990" y="-270" as="sourcePoint" />
            <mxPoint x="-1130" y="-350" as="targetPoint" />
          </mxGeometry>
        </mxCell>
        <mxCell id="h4Le6FHJ1qaoNSACG7Jo-17" value="Required For" style="endArrow=classic;html=1;rounded=0;entryX=0.5;entryY=0;entryDx=0;entryDy=0;exitX=0.25;exitY=1;exitDx=0;exitDy=0;" edge="1" parent="1" source="h4Le6FHJ1qaoNSACG7Jo-15" target="h4Le6FHJ1qaoNSACG7Jo-1">
          <mxGeometry width="50" height="50" relative="1" as="geometry">
            <mxPoint x="-1470" y="-240" as="sourcePoint" />
            <mxPoint x="-1470" y="-370" as="targetPoint" />
          </mxGeometry>
        </mxCell>
        <mxCell id="h4Le6FHJ1qaoNSACG7Jo-18" value="Exploration" style="rounded=0;whiteSpace=wrap;html=1;fillColor=#d5e8d4;strokeColor=#82b366;" vertex="1" parent="1">
          <mxGeometry x="-1740" y="-200" width="120" height="60" as="geometry" />
        </mxCell>
        <mxCell id="h4Le6FHJ1qaoNSACG7Jo-19" value="Supports" style="endArrow=classic;html=1;rounded=0;entryX=0;entryY=0.5;entryDx=0;entryDy=0;exitX=1;exitY=0.5;exitDx=0;exitDy=0;" edge="1" parent="1" source="h4Le6FHJ1qaoNSACG7Jo-18" target="h4Le6FHJ1qaoNSACG7Jo-15">
          <mxGeometry width="50" height="50" relative="1" as="geometry">
            <mxPoint x="-1080" y="-260" as="sourcePoint" />
            <mxPoint x="-1080" y="-390" as="targetPoint" />
          </mxGeometry>
        </mxCell>
        <mxCell id="h4Le6FHJ1qaoNSACG7Jo-20" value="Involves" style="endArrow=classic;html=1;rounded=0;exitX=0.25;exitY=0;exitDx=0;exitDy=0;entryX=0.5;entryY=1;entryDx=0;entryDy=0;" edge="1" parent="1" source="h4Le6FHJ1qaoNSACG7Jo-1" target="h4Le6FHJ1qaoNSACG7Jo-18">
          <mxGeometry width="50" height="50" relative="1" as="geometry">
            <mxPoint x="-1470" y="30" as="sourcePoint" />
            <mxPoint x="-1390" y="140" as="targetPoint" />
          </mxGeometry>
        </mxCell>
        <mxCell id="h4Le6FHJ1qaoNSACG7Jo-21" value="Required For" style="endArrow=classic;html=1;rounded=0;entryX=0;entryY=0.5;entryDx=0;entryDy=0;exitX=0.25;exitY=1;exitDx=0;exitDy=0;" edge="1" parent="1" source="h4Le6FHJ1qaoNSACG7Jo-18" target="h4Le6FHJ1qaoNSACG7Jo-12">
          <mxGeometry width="50" height="50" relative="1" as="geometry">
            <mxPoint x="-1270" y="-360" as="sourcePoint" />
            <mxPoint x="-1440" y="-30" as="targetPoint" />
          </mxGeometry>
        </mxCell>
        <mxCell id="h4Le6FHJ1qaoNSACG7Jo-22" value="Pacing/Tension" style="rounded=0;whiteSpace=wrap;html=1;fillColor=#dae8fc;strokeColor=#6c8ebf;" vertex="1" parent="1">
          <mxGeometry x="-1140" y="-300" width="120" height="60" as="geometry" />
        </mxCell>
        <mxCell id="h4Le6FHJ1qaoNSACG7Jo-23" value="Reinforces" style="endArrow=classic;html=1;rounded=0;entryX=1;entryY=0.5;entryDx=0;entryDy=0;exitX=0;exitY=0.5;exitDx=0;exitDy=0;" edge="1" parent="1" source="h4Le6FHJ1qaoNSACG7Jo-22" target="h4Le6FHJ1qaoNSACG7Jo-15">
          <mxGeometry width="50" height="50" relative="1" as="geometry">
            <mxPoint x="-1120" y="-590" as="sourcePoint" />
            <mxPoint x="-1210" y="-490" as="targetPoint" />
          </mxGeometry>
        </mxCell>
        <mxCell id="h4Le6FHJ1qaoNSACG7Jo-24" value="Time limit" style="rounded=0;whiteSpace=wrap;html=1;fillColor=#ffe6cc;strokeColor=#d79b00;" vertex="1" parent="1">
          <mxGeometry x="-710" y="-50" width="120" height="60" as="geometry" />
        </mxCell>
        <mxCell id="h4Le6FHJ1qaoNSACG7Jo-25" value="Affects" style="endArrow=classic;html=1;rounded=0;entryX=1;entryY=0.25;entryDx=0;entryDy=0;exitX=0;exitY=0.5;exitDx=0;exitDy=0;" edge="1" parent="1" source="h4Le6FHJ1qaoNSACG7Jo-24" target="h4Le6FHJ1qaoNSACG7Jo-22">
          <mxGeometry width="50" height="50" relative="1" as="geometry">
            <mxPoint x="-1240" y="-230" as="sourcePoint" />
            <mxPoint x="-1240" y="-360" as="targetPoint" />
          </mxGeometry>
        </mxCell>
        <mxCell id="h4Le6FHJ1qaoNSACG7Jo-26" value="Affects" style="endArrow=classic;html=1;rounded=0;entryX=1;entryY=0.75;entryDx=0;entryDy=0;exitX=0;exitY=0.75;exitDx=0;exitDy=0;" edge="1" parent="1" source="h4Le6FHJ1qaoNSACG7Jo-24" target="h4Le6FHJ1qaoNSACG7Jo-3">
          <mxGeometry width="50" height="50" relative="1" as="geometry">
            <mxPoint x="-710" y="-10" as="sourcePoint" />
            <mxPoint x="-1100" y="-330" as="targetPoint" />
          </mxGeometry>
        </mxCell>
        <mxCell id="h4Le6FHJ1qaoNSACG7Jo-27" value="(Lighting changes as storm approaches)" style="text;html=1;strokeColor=none;fillColor=none;align=center;verticalAlign=middle;whiteSpace=wrap;rounded=0;fontStyle=2" vertex="1" parent="1">
          <mxGeometry x="-901" y="-40" width="107" height="30" as="geometry" />
        </mxCell>
        <mxCell id="h4Le6FHJ1qaoNSACG7Jo-28" value="Puts pressure on" style="endArrow=classic;html=1;rounded=0;entryX=1;entryY=0;entryDx=0;entryDy=0;exitX=0.75;exitY=1;exitDx=0;exitDy=0;" edge="1" parent="1" source="h4Le6FHJ1qaoNSACG7Jo-22" target="h4Le6FHJ1qaoNSACG7Jo-1">
          <mxGeometry x="0.3026" y="-4" width="50" height="50" relative="1" as="geometry">
            <mxPoint x="-1030" y="-220" as="sourcePoint" />
            <mxPoint x="-1130" y="-280" as="targetPoint" />
            <mxPoint as="offset" />
          </mxGeometry>
        </mxCell>
        <mxCell id="h4Le6FHJ1qaoNSACG7Jo-29" value="Dynamic" style="rounded=0;whiteSpace=wrap;html=1;fillColor=#d5e8d4;strokeColor=#82b366;" vertex="1" parent="1">
          <mxGeometry x="-630" y="-370" width="120" height="60" as="geometry" />
        </mxCell>
        <mxCell id="h4Le6FHJ1qaoNSACG7Jo-30" value="Game Design Technique" style="rounded=0;whiteSpace=wrap;html=1;fillColor=#dae8fc;strokeColor=#6c8ebf;" vertex="1" parent="1">
          <mxGeometry x="-630" y="-290" width="120" height="60" as="geometry" />
        </mxCell>
        <mxCell id="h4Le6FHJ1qaoNSACG7Jo-31" value="Mechanic" style="rounded=0;whiteSpace=wrap;html=1;fillColor=#ffe6cc;strokeColor=#d79b00;" vertex="1" parent="1">
          <mxGeometry x="-630" y="-210" width="120" height="60" as="geometry" />
        </mxCell>
        <mxCell id="h4Le6FHJ1qaoNSACG7Jo-32" value="Risk / Reward" style="rounded=0;whiteSpace=wrap;html=1;fillColor=#dae8fc;strokeColor=#6c8ebf;" vertex="1" parent="1">
          <mxGeometry x="-1340" y="280" width="120" height="60" as="geometry" />
        </mxCell>
        <mxCell id="h4Le6FHJ1qaoNSACG7Jo-33" value="Death" style="rounded=0;whiteSpace=wrap;html=1;fillColor=#ffe6cc;strokeColor=#d79b00;" vertex="1" parent="1">
          <mxGeometry x="-1350" y="130" width="120" height="60" as="geometry" />
        </mxCell>
        <mxCell id="h4Le6FHJ1qaoNSACG7Jo-34" value="Results In" style="endArrow=classic;html=1;rounded=0;exitX=0.75;exitY=1;exitDx=0;exitDy=0;entryX=0.25;entryY=0;entryDx=0;entryDy=0;" edge="1" parent="1" source="h4Le6FHJ1qaoNSACG7Jo-1" target="h4Le6FHJ1qaoNSACG7Jo-33">
          <mxGeometry width="50" height="50" relative="1" as="geometry">
            <mxPoint x="-1410" y="140" as="sourcePoint" />
            <mxPoint x="-1000" y="-90" as="targetPoint" />
          </mxGeometry>
        </mxCell>
        <mxCell id="h4Le6FHJ1qaoNSACG7Jo-35" value="Affects" style="endArrow=classic;html=1;rounded=0;exitX=0.75;exitY=0;exitDx=0;exitDy=0;entryX=0.25;entryY=1;entryDx=0;entryDy=0;" edge="1" parent="1" source="h4Le6FHJ1qaoNSACG7Jo-33" target="h4Le6FHJ1qaoNSACG7Jo-22">
          <mxGeometry width="50" height="50" relative="1" as="geometry">
            <mxPoint x="-1410" y="140" as="sourcePoint" />
            <mxPoint x="-1000" y="-90" as="targetPoint" />
          </mxGeometry>
        </mxCell>
        <mxCell id="h4Le6FHJ1qaoNSACG7Jo-36" value="Results In" style="endArrow=classic;html=1;rounded=0;exitX=0.5;exitY=1;exitDx=0;exitDy=0;entryX=0.25;entryY=0;entryDx=0;entryDy=0;" edge="1" parent="1" source="h4Le6FHJ1qaoNSACG7Jo-12" target="h4Le6FHJ1qaoNSACG7Jo-32">
          <mxGeometry width="50" height="50" relative="1" as="geometry">
            <mxPoint x="-1480" y="240" as="sourcePoint" />
            <mxPoint x="-1380" y="350" as="targetPoint" />
          </mxGeometry>
        </mxCell>
        <mxCell id="h4Le6FHJ1qaoNSACG7Jo-37" value="Results In" style="endArrow=classic;html=1;rounded=0;exitX=0.5;exitY=1;exitDx=0;exitDy=0;entryX=0.5;entryY=0;entryDx=0;entryDy=0;" edge="1" parent="1" source="h4Le6FHJ1qaoNSACG7Jo-33" target="h4Le6FHJ1qaoNSACG7Jo-32">
          <mxGeometry width="50" height="50" relative="1" as="geometry">
            <mxPoint x="-1280" y="200" as="sourcePoint" />
            <mxPoint x="-1160" y="290" as="targetPoint" />
          </mxGeometry>
        </mxCell>
        <mxCell id="h4Le6FHJ1qaoNSACG7Jo-38" value="Results In" style="endArrow=classic;html=1;rounded=0;entryX=0.75;entryY=0;entryDx=0;entryDy=0;" edge="1" parent="1" target="h4Le6FHJ1qaoNSACG7Jo-32">
          <mxGeometry width="50" height="50" relative="1" as="geometry">
            <mxPoint x="-1050" y="-240" as="sourcePoint" />
            <mxPoint x="-1230" y="290" as="targetPoint" />
          </mxGeometry>
        </mxCell>
        <mxCell id="h4Le6FHJ1qaoNSACG7Jo-41" value="+" style="ellipse;whiteSpace=wrap;html=1;aspect=fixed;" vertex="1" parent="1">
          <mxGeometry x="-1130" y="260" width="20" height="20" as="geometry" />
        </mxCell>
        <mxCell id="h4Le6FHJ1qaoNSACG7Jo-42" value="" style="endArrow=classic;html=1;rounded=0;exitX=0.5;exitY=1;exitDx=0;exitDy=0;entryX=0.5;entryY=0;entryDx=0;entryDy=0;" edge="1" parent="1" source="h4Le6FHJ1qaoNSACG7Jo-10" target="h4Le6FHJ1qaoNSACG7Jo-41">
          <mxGeometry width="50" height="50" relative="1" as="geometry">
            <mxPoint x="-970" y="200" as="sourcePoint" />
            <mxPoint x="-900" y="80" as="targetPoint" />
          </mxGeometry>
        </mxCell>
        <mxCell id="h4Le6FHJ1qaoNSACG7Jo-43" value="" style="endArrow=classic;html=1;rounded=0;exitX=0.25;exitY=1;exitDx=0;exitDy=0;entryX=1;entryY=0.5;entryDx=0;entryDy=0;" edge="1" parent="1" source="h4Le6FHJ1qaoNSACG7Jo-24" target="h4Le6FHJ1qaoNSACG7Jo-41">
          <mxGeometry width="50" height="50" relative="1" as="geometry">
            <mxPoint x="-1040" y="210" as="sourcePoint" />
            <mxPoint x="-1040" y="280" as="targetPoint" />
          </mxGeometry>
        </mxCell>
        <mxCell id="h4Le6FHJ1qaoNSACG7Jo-44" value="" style="endArrow=classic;html=1;rounded=0;exitX=0;exitY=0.5;exitDx=0;exitDy=0;entryX=1;entryY=0.25;entryDx=0;entryDy=0;" edge="1" parent="1" source="h4Le6FHJ1qaoNSACG7Jo-41" target="h4Le6FHJ1qaoNSACG7Jo-32">
          <mxGeometry width="50" height="50" relative="1" as="geometry">
            <mxPoint x="-1210" y="310" as="sourcePoint" />
            <mxPoint x="-1210" y="380" as="targetPoint" />
          </mxGeometry>
        </mxCell>
        <mxCell id="h4Le6FHJ1qaoNSACG7Jo-45" value="Leads to" style="endArrow=classic;html=1;rounded=0;entryX=1;entryY=0;entryDx=0;entryDy=0;exitX=0;exitY=0.75;exitDx=0;exitDy=0;" edge="1" parent="1" source="h4Le6FHJ1qaoNSACG7Jo-24" target="h4Le6FHJ1qaoNSACG7Jo-33">
          <mxGeometry width="50" height="50" relative="1" as="geometry">
            <mxPoint x="-790" y="215" as="sourcePoint" />
            <mxPoint x="-1000" y="105" as="targetPoint" />
          </mxGeometry>
        </mxCell>
        <mxCell id="h4Le6FHJ1qaoNSACG7Jo-48" value="Results In" style="endArrow=classic;html=1;rounded=0;exitX=0.881;exitY=0.014;exitDx=0;exitDy=0;exitPerimeter=0;entryX=0;entryY=0.75;entryDx=0;entryDy=0;" edge="1" parent="1" source="h4Le6FHJ1qaoNSACG7Jo-33" target="h4Le6FHJ1qaoNSACG7Jo-4">
          <mxGeometry x="0.181" y="1" width="50" height="50" relative="1" as="geometry">
            <mxPoint x="-1040" y="-230" as="sourcePoint" />
            <mxPoint x="-1050" y="30" as="targetPoint" />
            <mxPoint as="offset" />
          </mxGeometry>
        </mxCell>
      </root>
    </mxGraphModel>
  </diagram>
</mxfile>
